<svg width="31" height="28" viewBox="0 0 31 28" fill="none" xmlns="http://www.w3.org/2000/svg">
<path d="M12 26C12.5523 26 13 25.1046 13 24C13 22.8954 12.5523 22 12 22C11.4477 22 11 22.8954 11 24C11 25.1046 11.4477 26 12 26Z" stroke="#587445" stroke-width="3" stroke-linecap="round" stroke-linejoin="round"/>
<path d="M2 2H6.34783L9.6087 20H27" stroke="#587445" stroke-width="3" stroke-linecap="round" stroke-linejoin="round"/>
<path d="M9.21213 16H26.4557C26.5836 16.0001 26.7075 15.9601 26.8065 15.8868C26.9054 15.8135 26.9732 15.7115 26.9983 15.5981L28.9892 6.59813C29.0053 6.52555 29.0034 6.45066 28.9835 6.37886C28.9637 6.30705 28.9265 6.24012 28.8746 6.1829C28.8226 6.12567 28.7573 6.07959 28.6833 6.04796C28.6093 6.01633 28.5284 5.99995 28.4466 6H7" stroke="#587445" stroke-width="3" stroke-linecap="round" stroke-linejoin="round"/>
</svg>
