<svg width="35" height="36" viewBox="0 0 35 36" fill="none" xmlns="http://www.w3.org/2000/svg">
<path d="M12 34C13.1046 34 14 33.1046 14 32C14 30.8954 13.1046 30 12 30C10.8954 30 10 30.8954 10 32C10 33.1046 10.8954 34 12 34Z" stroke="#587445" stroke-width="3" stroke-linecap="round" stroke-linejoin="round"/>
<path d="M29 34C30.1046 34 31 33.1046 31 32C31 30.8954 30.1046 30 29 30C27.8954 30 27 30.8954 27 32C27 33.1046 27.8954 34 29 34Z" stroke="#587445" stroke-width="3" stroke-linecap="round" stroke-linejoin="round"/>
<path d="M2 2H6.86957L10.5217 26H30" stroke="#587445" stroke-width="3" stroke-linecap="round" stroke-linejoin="round"/>
<path d="M10.5138 21H30.1087C30.2541 21.0001 30.3949 20.9441 30.5074 20.8415C30.6198 20.7389 30.6969 20.5961 30.7254 20.4374L32.9878 7.83738C33.006 7.73578 33.0038 7.63093 32.9813 7.5304C32.9587 7.42987 32.9164 7.33617 32.8574 7.25606C32.7984 7.17594 32.7242 7.11142 32.6401 7.06714C32.556 7.02286 32.4641 6.99993 32.3711 7H8" stroke="#587445" stroke-width="3" stroke-linecap="round" stroke-linejoin="round"/>
</svg>
