<svg width="31" height="28" viewBox="0 0 31 28" fill="none" xmlns="http://www.w3.org/2000/svg">
<path d="M10.75 26.0312C11.3541 26.0312 11.8438 25.5416 11.8438 24.9375C11.8438 24.3334 11.3541 23.8438 10.75 23.8438C10.1459 23.8438 9.65625 24.3334 9.65625 24.9375C9.65625 25.5416 10.1459 26.0312 10.75 26.0312Z" stroke="#587445" stroke-width="3" stroke-linecap="round" stroke-linejoin="round"/>
<path d="M26.0625 26.0312C26.6666 26.0312 27.1562 25.5416 27.1562 24.9375C27.1562 24.3334 26.6666 23.8438 26.0625 23.8438C25.4584 23.8438 24.9688 24.3334 24.9688 24.9375C24.9688 25.5416 25.4584 26.0312 26.0625 26.0312Z" stroke="#587445" stroke-width="3" stroke-linecap="round" stroke-linejoin="round"/>
<path d="M2 1.96875H6.375L9.65625 20.5625H27.1562" stroke="#587445" stroke-width="3" stroke-linecap="round" stroke-linejoin="round"/>
<path d="M9.65625 16.1875H26.7078C26.8343 16.1876 26.9569 16.1438 27.0547 16.0637C27.1526 15.9835 27.2196 15.872 27.2444 15.7479L29.2132 5.9042C29.2291 5.82482 29.2271 5.74291 29.2075 5.66437C29.1879 5.58584 29.1511 5.51263 29.0998 5.45004C29.0484 5.38746 28.9838 5.33705 28.9107 5.30245C28.8375 5.26786 28.7575 5.24994 28.6766 5.25H7.46875" stroke="#587445" stroke-width="3" stroke-linecap="round" stroke-linejoin="round"/>
<path d="M10.75 26.0312C11.3541 26.0312 11.8438 25.5416 11.8438 24.9375C11.8438 24.3334 11.3541 23.8438 10.75 23.8438C10.1459 23.8438 9.65625 24.3334 9.65625 24.9375C9.65625 25.5416 10.1459 26.0312 10.75 26.0312Z" stroke="#587445" stroke-width="3" stroke-linecap="round" stroke-linejoin="round"/>
<path d="M26.0625 26.0312C26.6666 26.0312 27.1562 25.5416 27.1562 24.9375C27.1562 24.3334 26.6666 23.8438 26.0625 23.8438C25.4584 23.8438 24.9688 24.3334 24.9688 24.9375C24.9688 25.5416 25.4584 26.0312 26.0625 26.0312Z" stroke="#587445" stroke-width="3" stroke-linecap="round" stroke-linejoin="round"/>
<path d="M2 1.96875H6.375L9.65625 20.5625H27.1562" stroke="#587445" stroke-width="3" stroke-linecap="round" stroke-linejoin="round"/>
<path d="M9.65625 16.1875H26.7078C26.8343 16.1876 26.9569 16.1438 27.0547 16.0637C27.1526 15.9835 27.2196 15.872 27.2444 15.7479L29.2132 5.9042C29.2291 5.82482 29.2271 5.74291 29.2075 5.66437C29.1879 5.58584 29.1511 5.51263 29.0998 5.45004C29.0484 5.38746 28.9838 5.33705 28.9107 5.30245C28.8375 5.26786 28.7575 5.24994 28.6766 5.25H7.46875" stroke="#587445" stroke-width="3" stroke-linecap="round" stroke-linejoin="round"/>
</svg>
