<svg width="28" height="22" viewBox="0 0 28 22" fill="none" xmlns="http://www.w3.org/2000/svg">
<path fill-rule="evenodd" clip-rule="evenodd" d="M0 20.7778C0 20.4536 0.134091 20.1427 0.372773 19.9135C0.611456 19.6843 0.935179 19.5556 1.27273 19.5556H26.7273C27.0648 19.5556 27.3885 19.6843 27.6272 19.9135C27.8659 20.1427 28 20.4536 28 20.7778C28 21.1019 27.8659 21.4128 27.6272 21.642C27.3885 21.8712 27.0648 22 26.7273 22H1.27273C0.935179 22 0.611456 21.8712 0.372773 21.642C0.134091 21.4128 0 21.1019 0 20.7778ZM0 11C0 10.6758 0.134091 10.365 0.372773 10.1358C0.611456 9.90655 0.935179 9.77778 1.27273 9.77778H26.7273C27.0648 9.77778 27.3885 9.90655 27.6272 10.1358C27.8659 10.365 28 10.6758 28 11C28 11.3242 27.8659 11.635 27.6272 11.8642C27.3885 12.0935 27.0648 12.2222 26.7273 12.2222H1.27273C0.935179 12.2222 0.611456 12.0935 0.372773 11.8642C0.134091 11.635 0 11.3242 0 11ZM0 1.22222C0 0.898069 0.134091 0.587192 0.372773 0.357981C0.611456 0.12877 0.935179 0 1.27273 0H26.7273C27.0648 0 27.3885 0.12877 27.6272 0.357981C27.8659 0.587192 28 0.898069 28 1.22222C28 1.54638 27.8659 1.85725 27.6272 2.08646C27.3885 2.31567 27.0648 2.44444 26.7273 2.44444H1.27273C0.935179 2.44444 0.611456 2.31567 0.372773 2.08646C0.134091 1.85725 0 1.54638 0 1.22222Z" fill="#587445"/>
</svg>
