<svg width="25" height="26" viewBox="0 0 25 26" fill="none" xmlns="http://www.w3.org/2000/svg">
<path d="M24.6168 22.9906L18.9495 17.3232C20.3139 15.5068 21.0505 13.2958 21.048 11.024C21.048 5.2211 16.3269 0.5 10.524 0.5C4.7211 0.5 0 5.2211 0 11.024C0 16.8269 4.7211 21.548 10.524 21.548C12.7958 21.5505 15.0068 20.8139 16.8232 19.4495L22.4906 25.1168C22.7775 25.3733 23.1516 25.5102 23.5363 25.4994C23.9209 25.4886 24.2869 25.331 24.5589 25.0589C24.831 24.7869 24.9886 24.4209 24.9994 24.0363C25.0102 23.6516 24.8733 23.2775 24.6168 22.9906ZM3.00686 11.024C3.00686 9.53725 3.44773 8.08389 4.27372 6.8477C5.09972 5.61151 6.27374 4.64802 7.64731 4.07907C9.02089 3.51011 10.5323 3.36125 11.9905 3.6513C13.4487 3.94135 14.7881 4.65729 15.8394 5.70858C16.8907 6.75987 17.6067 8.0993 17.8967 9.55748C18.1868 11.0157 18.0379 12.5271 17.4689 13.9007C16.9 15.2743 15.9365 16.4483 14.7003 17.2743C13.4641 18.1003 12.0107 18.5411 10.524 18.5411C8.53106 18.5387 6.62044 17.746 5.21122 16.3368C3.802 14.9276 3.00925 13.0169 3.00686 11.024Z" fill="#587445"/>
</svg>
